HIERARCHY
ROOT hip
{
	OFFSET 0.000000 0.000000 0.000000 
	CHANNELS 6 Xposition Yposition Zposition Xrotation Zrotation Yrotation
	JOINT abdomen
	{
		OFFSET 0.000000 3.402643 0.000000 
		CHANNELS 3 Xrotation Zrotation Yrotation
		JOINT chest
		{
			OFFSET 0.000000 8.438565 -0.680529 
			CHANNELS 3 Xrotation Zrotation Yrotation
			JOINT neck
			{
				OFFSET 0.000000 10.207942 -0.272212 
				CHANNELS 3 Xrotation Zrotation Yrotation
				JOINT head
				{
					OFFSET 0.000000 3.130431 0.000000 
					CHANNELS 3 Xrotation Zrotation Yrotation
					End Site
					{
						OFFSET 0.000000 3.130435 0.000000 
					}
				}
			}
			JOINT lCollar
			{
				OFFSET 3.470700 6.669187 -0.816635 
				CHANNELS 3 Yrotation Zrotation Xrotation
				JOINT lShldr
				{
					OFFSET 3.198488 0.000000 0.000000 
					CHANNELS 3 Zrotation Yrotation Xrotation
					JOINT lForeArm
					{
						OFFSET 10.139888 0.000000 0.000000 
						CHANNELS 3 Yrotation Zrotation Xrotation
						JOINT lHand
						{
							OFFSET 8.370511 0.000000 0.000000 
							CHANNELS 3 Zrotation Yrotation Xrotation
							End Site
							{
								OFFSET 4.083176 0.000000 0.000000 
							}
						}
					}
				}
			}
			JOINT rCollar
			{
				OFFSET -3.470700 6.669187 -0.816635 
				CHANNELS 3 Yrotation Zrotation Xrotation
				JOINT rShldr
				{
					OFFSET -3.198488 0.000000 0.000000 
					CHANNELS 3 Zrotation Yrotation Xrotation
					JOINT rForeArm
					{
						OFFSET -10.139888 0.000000 0.000000 
						CHANNELS 3 Yrotation Zrotation Xrotation
						JOINT rHand
						{
							OFFSET -8.370511 0.000000 0.000000 
							CHANNELS 3 Zrotation Yrotation Xrotation
							End Site
							{
								OFFSET -4.083176 0.000000 0.000000 
							}
						}
					}
				}
			}
		}
	}
	JOINT lThigh
	{
		OFFSET 5.308129 -1.633274 1.361059 
		CHANNELS 3 Xrotation Zrotation Yrotation
		JOINT lShin
		{
			OFFSET -2.041588 -20.007561 0.000000 
			CHANNELS 3 Xrotation Zrotation Yrotation
			JOINT lFoot
			{
				OFFSET 0.000000 -19.190928 -1.224953 
				CHANNELS 3 Xrotation Yrotation Zrotation
				End Site
				{
					OFFSET 0.000000 -2.449906 4.627600 
				}
			}
		}
	}
	JOINT rThigh
	{
		OFFSET -5.308129 -1.633274 1.361059 
		CHANNELS 3 Xrotation Zrotation Yrotation
		JOINT rShin
		{
			OFFSET 2.041588 -20.007561 0.000000 
			CHANNELS 3 Xrotation Zrotation Yrotation
			JOINT rFoot
			{
				OFFSET 0.000000 -19.190928 -1.224953 
				CHANNELS 3 Xrotation Yrotation Zrotation
				End Site
				{
					OFFSET 0.000000 -2.449906 4.627600 
				}
			}
		}
	}
}
MOTION
Frames: 18
Frame Time: 0.033333
0.705267 11.223435 0.705267 -0.009774 -0.016920 -29.970703 28.654091 -1.697913 2.246843 11.220703 0.000000 -1.230469 -8.544920 -0.009766 -0.009767 52.322475 4.078241 27.360329 1.992188 -2.001953 0.000341 -29.178236 -42.766281 41.066525 -83.448341 -0.514440 8.909829 -20.873301 10.680406 -55.272114 -2.001953 1.992188 0.000000 84.297417 25.254431 14.578689 64.406418 0.496844 8.697312 30.638432 6.733869 -61.168968 -143.662292 33.728565 -24.548298 129.749451 4.984499 -3.046082 1.634454 20.096546 4.376076 -23.704515 -40.338261 28.764597 115.926491 -4.325220 3.579783 -33.360874 31.065479 51.346645 
0.697751 11.165838 0.697751 -0.009786 -0.016926 -29.931644 28.829102 -1.717429 2.246840 11.220703 0.000000 -1.230469 -8.544920 -0.009766 -0.009767 52.020725 3.902255 27.177608 1.992188 -2.001953 0.000341 -30.597151 -42.983456 41.655361 -80.856194 -0.499268 8.882978 -21.030317 10.183432 -55.424767 -2.001953 1.992188 0.000000 84.289604 25.419624 14.559614 64.367378 0.496108 8.708615 30.842583 6.834905 -61.180943 -143.877014 33.611355 -24.621046 129.837875 4.994362 -3.032633 1.758231 20.073963 4.384494 -23.549135 -40.426605 28.754471 115.936325 -4.305670 3.590872 -33.515137 31.084030 51.433571 
0.685230 11.115753 0.685230 -0.009800 -0.016935 -29.882814 28.966116 -1.717440 2.237079 11.220703 0.000000 -1.230469 -8.544920 -0.009766 -0.009767 51.620659 3.641779 26.894632 1.992188 -2.001953 0.000341 -31.790695 -43.077072 42.043209 -78.519768 -0.504015 8.861931 -21.179148 9.693847 -55.573391 -2.001953 1.992188 0.000000 84.272163 25.567833 14.538046 64.337921 0.505319 8.700001 31.097906 6.970487 -61.215816 -144.089996 33.513332 -24.685148 129.926392 5.005114 -3.016866 1.891800 19.991516 4.382691 -23.368576 -40.521889 28.673746 115.917122 -4.326420 3.568206 -33.693172 31.103907 51.550316 
0.672712 11.065672 0.672712 -0.009818 -0.016944 -29.824219 29.112598 -1.717441 2.237079 11.230469 0.000000 -1.230469 -8.544920 -0.009766 -0.009767 51.213448 3.379890 26.612852 1.992188 -2.001953 0.000341 -32.996971 -43.156132 42.439804 -76.192459 -0.510312 8.835137 -21.340698 9.197501 -55.732719 -2.001953 1.992188 0.000000 84.243690 25.728195 14.511283 64.308830 0.495001 8.701155 31.346853 7.106678 -61.234066 -144.308136 33.426125 -24.762690 130.023117 5.013842 -3.042900 1.999337 19.947136 4.397745 -23.206436 -40.621334 28.647650 115.897476 -4.334932 3.564968 -33.871792 31.140654 51.634083 
0.665199 11.023095 0.665199 -0.009832 -0.016953 -29.775393 29.219934 -1.727210 2.227317 11.230469 0.000000 -1.230469 -8.544920 -0.009766 -0.009767 50.744595 3.040648 26.221754 1.992188 -2.001953 0.000341 -33.669655 -42.930500 42.368137 -74.548851 -0.511208 8.813407 -21.484518 8.706641 -55.876698 -2.001953 1.992188 0.000000 84.206490 25.852121 14.483678 64.279358 0.504211 8.702304 31.643038 7.268861 -61.283894 -144.481415 33.329884 -24.819887 130.092728 5.004177 -3.013831 2.111652 19.874260 4.399875 -23.015100 -40.731030 28.577705 115.887764 -4.315385 3.576040 -34.016735 31.146301 51.701321 
0.657689 10.980527 0.657689 -0.009846 -0.016961 -29.726564 29.337414 -1.727221 2.217555 11.240234 0.000000 -1.230469 -8.544920 -0.009766 -0.009767 50.270691 2.698946 25.831676 1.992188 -2.001953 0.000341 -34.331249 -42.700172 42.292046 -72.896584 -0.511143 8.794415 -21.640913 8.208932 -56.029751 -2.001953 1.992188 0.000000 84.179222 25.983305 14.459323 64.240318 0.503471 8.703839 31.931871 7.430679 -61.341934 -144.641953 33.231171 -24.861706 130.141678 5.004210 -3.012157 2.239077 19.821110 4.397974 -22.799456 -40.828194 28.499897 115.867859 -4.315356 3.585510 -34.181236 31.166279 51.801514 
0.652679 10.940454 0.652679 -0.009861 -0.016969 -29.677736 29.435072 -1.727221 2.217555 11.240234 0.000000 -1.230469 -8.544920 -0.009766 -0.009767 49.763802 2.303231 25.373587 1.992188 -2.001953 0.000341 -33.837944 -41.672806 41.002785 -72.508614 -0.510686 8.789533 -21.858208 7.568816 -56.248924 -2.001953 1.992188 0.000000 84.143051 26.088671 14.447266 64.201469 0.492966 8.695608 32.266529 7.614430 -61.424381 -144.749405 33.153069 -24.890125 130.200104 5.003228 -3.020044 2.322060 19.718931 4.408703 -22.582659 -40.934422 28.403341 115.828766 -4.315359 3.585524 -34.326786 31.203098 51.879681 
0.647669 10.900397 0.647669 -0.009878 -0.016979 -29.619143 29.533024 -1.727233 2.207794 11.240234 0.000000 -1.230469 -8.544920 -0.009766 -0.009767 49.253231 1.904477 24.907427 1.992188 -2.001953 0.000341 -33.385052 -40.640202 39.739105 -72.113487 -0.518369 8.791351 -22.071922 6.923644 -56.473152 -2.001953 1.992188 0.000000 84.106537 26.193113 14.421091 64.152481 0.501802 8.697526 32.587402 7.798509 -61.498947 -144.877518 33.065422 -24.933716 130.268784 5.005678 -3.012865 2.412450 19.640823 4.402209 -22.359205 -41.042572 28.313257 115.780655 -4.295858 3.577644 -34.475426 31.216764 51.954178 
0.640156 10.870343 0.640156 -0.009893 -0.016987 -29.570314 29.582523 -1.717486 2.198034 11.240234 0.000000 -1.230469 -8.544920 -0.009766 -0.009767 48.732059 1.467441 24.403265 1.992188 -2.001953 0.000341 -31.640919 -38.523907 37.089626 -73.300606 -0.511989 8.805287 -22.375042 6.092114 -56.800327 -2.001953 1.992188 0.000000 84.072433 26.248972 14.403643 64.123390 0.491481 8.698678 32.938667 8.001278 -61.582428 -144.970001 33.007675 -24.956940 130.297607 5.012884 -3.025009 2.481012 19.553110 4.378246 -22.153801 -41.139973 28.206823 115.731392 -4.305694 3.581459 -34.588676 31.227604 52.026546 
0.632639 10.840298 0.632639 -0.009910 -0.016997 -29.511721 29.632305 -1.707750 2.178513 11.240234 0.000000 -1.230469 -8.544920 -0.009766 -0.009767 48.212666 1.035774 23.890865 1.992188 -2.001953 0.000341 -30.080956 -36.343998 34.603973 -74.486214 -0.505234 8.821097 -22.670111 5.253848 -57.128849 -2.001953 1.992188 0.000000 84.027504 26.317879 14.386301 64.084167 0.500500 8.700210 33.288284 8.215634 -61.668133 -145.028442 32.927677 -24.979862 130.327728 5.024614 -3.001086 2.533128 19.466934 4.359074 -21.918570 -41.237030 28.080845 115.672668 -4.325239 3.570541 -34.734161 31.231173 52.093437 
0.620118 10.820264 0.620117 -0.009925 -0.017005 -29.462893 29.633253 -1.698013 2.158991 11.240234 0.000000 -1.230469 -8.544920 -0.009766 -0.009767 47.718327 0.573855 23.341143 1.992188 -2.001953 0.000341 -27.966610 -33.672852 31.741997 -76.881607 -0.504634 8.844261 -22.911983 4.518520 -57.385719 -2.001953 1.992188 0.000000 83.985039 26.338219 14.377786 64.045128 0.499755 8.701741 33.659740 8.428919 -61.754936 -145.068161 32.888729 -24.978718 130.357101 5.024636 -3.000040 2.574440 19.354229 4.331879 -21.696936 -41.327080 27.965780 115.603851 -4.324121 3.581700 -34.865105 31.207502 52.166412 
0.607607 10.800240 0.607606 -0.009942 -0.017015 -29.404299 29.643967 -1.688276 2.139469 11.240234 0.000000 -1.230469 -8.544920 -0.009766 -0.009767 47.229115 0.099033 22.793016 1.992188 -2.001953 0.000341 -26.082476 -30.912868 29.088474 -79.271683 -0.503253 8.872226 -23.156416 3.782603 -57.648087 -2.001953 1.992188 0.000000 83.943344 26.349779 14.375555 63.986572 0.498635 8.694274 34.039028 8.641904 -61.833069 -145.089493 32.862274 -24.986238 130.375381 5.030354 -3.033431 2.609280 19.266312 4.323215 -21.467161 -41.421329 27.872559 115.545738 -4.286147 3.592366 -34.999329 31.207466 52.221035 
0.607607 10.792734 0.607606 -0.009962 -0.017027 -29.335939 29.518953 -1.659031 2.110187 11.230469 0.000000 -1.230469 -8.544920 -0.009766 -0.009767 46.854252 -0.361625 22.217257 1.992188 -2.001953 0.000341 -24.739141 -29.703001 28.084316 -81.769539 -0.511235 8.893685 -23.054676 3.976992 -57.533264 -2.001953 1.992188 0.000000 83.908585 26.236057 14.403764 63.947529 0.497888 8.695806 34.416756 8.866406 -61.913342 -145.100845 32.791748 -24.997686 130.375961 5.003159 -3.023738 2.682882 19.125237 4.270788 -21.234529 -41.510410 27.713190 115.477158 -4.314470 3.577585 -35.112244 31.184643 52.286770 
0.607598 10.785228 0.607597 -0.009983 -0.017038 -29.267580 29.383795 -1.639544 2.080903 11.230469 0.000000 -1.230469 -8.544920 -0.009766 -0.009767 46.478886 -0.826030 21.642910 1.992188 -2.001953 0.000341 -23.444506 -28.457750 27.126513 -84.265167 -0.509500 8.917682 -22.952246 4.171002 -57.418709 -2.001953 1.992188 0.000000 83.873642 26.133043 14.436577 63.898735 0.496951 8.697720 34.814529 9.101721 -61.997490 -145.118530 32.732822 -25.008255 130.385773 4.994377 -3.024328 2.735067 19.013033 4.260006 -21.007589 -41.596783 27.566832 115.408722 -4.314474 3.577613 -35.237503 31.143330 52.331921 
0.597581 10.782723 0.597580 -0.010000 -0.017048 -29.208982 29.123255 -1.590796 2.031823 11.210938 0.000000 -1.240234 -8.544920 -0.009766 -0.009767 46.275887 -1.275728 21.079618 1.992188 -2.001953 0.000341 -22.414251 -30.783775 29.324909 -87.404327 -0.519401 8.953827 -22.293077 6.302676 -56.733208 -2.001953 1.992188 0.000000 83.847740 25.877594 14.522282 63.849934 0.496013 8.689865 35.197102 9.333795 -62.065937 -145.147217 32.674099 -25.005520 130.375916 5.013947 -3.021717 2.811092 18.870924 4.207941 -20.787451 -41.657902 27.434759 115.311119 -4.286148 3.592277 -35.343975 31.065147 52.370876 
0.587561 10.780232 0.587561 -0.010018 -0.017058 -29.150394 28.862364 -1.542036 1.992780 11.201171 0.000000 -1.240234 -8.544920 -0.009766 -0.009767 46.075653 -1.719658 20.507446 1.992188 -2.001953 0.000341 -21.474363 -33.143990 31.533836 -90.542847 -0.521201 8.992561 -21.614880 8.424288 -56.017517 -2.001953 1.992188 0.000000 83.822365 25.612545 14.604927 63.810707 0.505026 8.691394 35.590698 9.572811 -62.139294 -145.188538 32.615952 -25.007359 130.337097 5.022726 -3.012837 2.899954 18.734850 4.184814 -20.549217 -41.713867 27.290049 115.223541 -4.276319 3.588265 -35.427898 31.001842 52.416996 
0.575040 10.795259 0.575040 -0.010035 -0.017067 -29.091801 28.553089 -1.493290 1.934209 11.191406 0.000000 -1.240234 -8.544920 -0.009766 -0.009767 45.968548 -2.120538 19.955355 1.992188 -2.001953 0.000341 -21.201326 -37.224503 35.289860 -93.824074 -0.526382 9.021081 -20.526911 11.459201 -54.863659 -2.001953 1.992188 0.000000 83.799774 25.300037 14.706534 63.762096 0.494321 8.693307 35.989471 9.788813 -62.179951 -145.149414 32.567154 -25.011435 130.297455 5.005480 -3.030945 2.961291 18.571911 4.133864 -20.342463 -41.752007 27.090523 115.135216 -4.276289 3.597676 -35.520470 30.893370 52.461151 
0.562525 10.810294 0.562525 -0.010055 -0.017079 -29.023441 28.244036 -1.434778 1.875390 11.181641 0.000000 -1.240234 -8.544920 -0.009766 -0.009767 45.869545 -2.524144 19.394157 1.992188 -2.001953 0.000341 -21.270279 -41.319828 39.236572 -97.100060 -0.542761 9.044733 -19.362915 14.474159 -53.633984 -2.001953 1.992188 0.000000 83.777451 24.988621 14.814008 63.713303 0.493379 8.695217 36.380806 10.019679 -62.237694 -145.109360 32.518112 -25.005840 130.248993 5.013879 -3.016811 3.022516 18.424683 4.071260 -20.154297 -41.805477 26.924887 115.056656 -4.276265 3.607077 -35.605797 30.782454 52.488262 
